<?xml version="1.0" encoding="utf-8"?>
<!-- Generator: Adobe Illustrator 16.0.0, SVG Export Plug-In . SVG Version: 6.00 Build 0)  -->
<!DOCTYPE svg PUBLIC "-//W3C//DTD SVG 1.1//EN" "http://www.w3.org/Graphics/SVG/1.1/DTD/svg11.dtd">
<svg version="1.1" id="Layer_1" xmlns="http://www.w3.org/2000/svg" xmlns:xlink="http://www.w3.org/1999/xlink" x="0px" y="0px"
	 width="512px" height="512px" viewBox="0 0 512 512" enable-background="new 0 0 512 512" xml:space="preserve">
<g>
	<defs>
		<rect id="SVGID_1_" width="512" height="512"/>
	</defs>
	<clipPath id="SVGID_2_">
		<use xlink:href="#SVGID_1_"  overflow="visible"/>
	</clipPath>
	<path clip-path="url(#SVGID_2_)" fill="#FFFFFF" d="M512,256c0,19.912-2.273,39.294-6.575,57.898
		c-94.291,50.643-116.812,47.643-238.284,47.643c-78.52,0-159.923,115.109-206.883,59.455C22.66,376.438,0,318.865,0,256
		C0,114.615,114.615,0,256,0S512,114.615,512,256"/>
	<path clip-path="url(#SVGID_2_)" fill="#BDC3C7" d="M256,512c121.472,0,223.184-84.604,249.424-198.102L457.349,245L412,274
		l-84-118L186,338l-50-20L60.274,420.987C107.234,476.639,177.482,512,256,512"/>
	<polygon clip-path="url(#SVGID_2_)" fill="#414F6B" points="328,156 334.103,318 412,274 	"/>
	<polygon clip-path="url(#SVGID_2_)" fill="#ECF0F1" points="89.617,421.569 136,433.569 181.112,489.066 263.608,417.069 
		230.608,340.572 328,156 186,338 136,318 86,386 	"/>
	<polygon clip-path="url(#SVGID_2_)" fill="#414F6B" points="136,318 136,357 157.112,348.072 146.556,393.069 201.604,318 	"/>
	<polygon clip-path="url(#SVGID_2_)" fill="#414F6B" points="310.105,414.07 349.104,355.535 418.1,334 451.099,401.79 412,374.035 
		334.104,456.067 	"/>
	<polygon clip-path="url(#SVGID_2_)" fill="#414F6B" points="293.606,262.577 256,339.073 282.849,382.571 	"/>
	<polygon clip-path="url(#SVGID_2_)" fill="#ECF0F1" points="431.6,288.076 451.099,346.573 475.097,322.574 	"/>
	<polygon clip-path="url(#SVGID_2_)" fill="#BDC3C7" points="181.112,418.569 207,382.571 194.056,427.569 	"/>
</g>
</svg>
